<svg xmlns="http://www.w3.org/2000/svg" width="709" height="707" fill="none"><g filter="url(#a)"><path fill="#FFC95E" fill-rule="evenodd" d="M342.135 202.746c41.507 4.076 85.425-4.78 118.966 16.933 38.057 24.638 72.079 62.623 67.481 103.767-4.438 39.709-60.009 54.202-88.615 85.333-36.095 39.281-40.702 110.425-97.832 117.57-56.845 7.11-102.244-45.436-130.586-89-22.334-34.33 1.578-74.518-1.419-113.903-3.446-45.279-53.058-97.263-17.148-130.097 35.768-32.705 97.659 4.34 149.153 9.397z" clip-rule="evenodd"/></g><g filter="url(#b)"><path fill="red" fill-rule="evenodd" d="M375.457 301.693c23.203.785 50.408-29.641 66.424-10.086 16.112 19.673-10.002 50.177-11.367 77.309-1.199 23.839 15.378 48.869 4.017 68.754-12.215 21.378-37.077 25.686-59.074 27.604-24.218 2.112-50.482 2.299-68.642-16.469-18.894-19.525-24.279-50.484-24.599-79.889-.325-29.849 1.033-66.222 22.836-81.941 21.072-15.192 45.628 13.879 70.405 14.718z" clip-rule="evenodd"/></g><path fill="#187CF2" d="M419.321 271.231c-14.914-.044-27.114 11.796-27.157 26.39-.02 6.692 2.346 11.322 6.453 17.154 2.9 4.13 3.246 6.863 2.696 7.925-.535 1.018-2.576 1.588-5.207 1.403-9.354-.663-38.315-4.116-38.418-4.131-.65-.106-1.315-.122-1.892-.124-3.311-.01-9.065 1.569-10.324 12.259-.329 1.565-1.832 10.025-4.136 39.339-.24 1.195-.066 2.274.109 3.191.8 4.153 3.542 6.628 7.312 6.639 3.902.011 8.344-2.605 14.328-6.812 4.991-3.501 9.134-5.054 13.376-5.042 10.746.032 19.486 8.537 19.455 18.965-.03 10.428-8.82 18.881-19.566 18.849-5.011-.014-8.451-1.413-13.582-5.475-5.958-4.715-10.46-6.885-14.052-6.896-3.177-.009-5.636 1.727-6.872 4.707-.714 1.741-.855 4.325-.608 5.788 1.905 20.582 2.869 24.367 3.702 27.663l.351 1.419c1.444 6.386 5.955 10.535 11.439 10.551l121.202.358c8.78.026 14.443-5.526 14.468-14.138l.289-97.844c.019-6.485-3.427-10.823-10.368-12.911-.472-.149-1.034-.166-1.536-.123-.281.029-28.698 2.766-38.797 3.903-.385.044-.813.116-1.183.115-.961-.003-2.675-.156-3.307-1.31-.691-1.242-.491-4.093 2.153-8.265l.475-.708c4.054-6.398 6.059-9.627 6.079-16.289.043-14.594-11.969-26.506-26.882-26.55z"/><path fill="#000" stroke="#000" d="M180.169 458.768h348.333c1.917 69.345-4.502 135.833-175 135.833s-174.983-59.705-173.333-135.833z"/><path fill="#60704B" d="M378.948 368.808c0-14.914-11.877-27.079-26.471-27.079-6.691 0-11.314 2.38-17.134 6.504-4.121 2.911-6.854 3.266-7.917 2.719-1.02-.532-1.596-2.572-1.419-5.203.636-9.356 4.003-38.326 4.018-38.43.104-.65.118-1.315.118-1.892 0-3.311-1.595-9.061-12.289-10.287-1.566-.326-10.03-1.804-39.351-4.021-1.196-.236-2.274-.059-3.19.118-4.151.813-6.618 3.563-6.618 7.332 0 3.902 2.629 8.336 6.854 14.308 3.516 4.981 5.081 9.119 5.081 13.362 0 10.745-8.478 19.51-18.907 19.51-10.428 0-18.907-8.765-18.907-19.51 0-5.011 1.389-8.455 5.436-13.599 4.697-5.971 6.854-10.479 6.854-14.071 0-3.178-1.743-5.632-4.727-6.859-1.743-.709-4.328-.842-5.79-.591-20.577 1.966-24.358 2.942-27.652 3.784l-1.418.355c-6.381 1.463-10.517 5.986-10.517 11.47v121.203c0 8.78 5.568 14.426 14.18 14.426h97.845c6.484 0 10.812-3.458 12.88-10.405.148-.473.163-1.035.118-1.538-.029-.28-2.851-28.689-4.018-38.785-.044-.384-.118-.813-.118-1.182 0-.961.148-2.676 1.3-3.311 1.241-.695 4.092-.503 8.272 2.128l.709.473c6.411 4.036 9.646 6.031 16.307 6.031 14.594 0 26.471-12.046 26.471-26.96z"/><path fill="#FD5D47" d="M263.564 331.977c8.428 12.305 25.1 15.63 37.14 7.383 5.521-3.781 7.991-8.357 10.462-15.048 1.754-4.731 3.808-6.568 4.995-6.718 1.142-.137 2.769 1.22 4.11 3.491 4.763 8.078 18.355 33.883 18.402 33.977.282.595.646 1.152.971 1.628 1.871 2.731 6.437 6.573 15.953 1.542 1.476-.616 9.294-4.18 34.737-18.919 1.121-.481 1.91-1.237 2.566-1.901 2.965-3.016 3.446-6.678 1.317-9.788-2.206-3.219-6.88-5.392-13.74-7.931-5.716-2.123-9.346-4.653-11.743-8.153-6.072-8.865-4.03-20.888 4.573-26.781 8.604-5.893 20.552-3.453 26.625 5.413 2.831 4.134 3.632 7.76 3.199 14.29-.501 7.581.268 12.52 2.297 15.483 1.796 2.622 4.621 3.661 7.776 2.987 1.839-.399 4.046-1.75 5.111-2.784 15.865-13.249 18.434-16.191 20.675-18.748l.97-1.094c4.437-4.813 5.294-10.882 2.195-15.406l-68.491-99.996c-4.961-7.244-12.746-8.755-19.851-3.889l-80.725 55.291c-5.35 3.664-6.966 8.963-4.746 15.863.145.474.45.946.771 1.335.183.215 18.564 22.059 25.232 29.729.253.292.557.604.765.909.543.792 1.39 2.29.799 3.466-.631 1.274-3.092 2.727-8.027 2.918l-.853.011c-7.569.293-11.365.475-16.862 4.239-12.04 8.247-15.031 24.897-6.603 37.201z"/><defs><filter id="a" width="709" height="707" x="0" y="0" color-interpolation-filters="sRGB" filterUnits="userSpaceOnUse"><feFlood flood-opacity="0" result="BackgroundImageFix"/><feBlend in="SourceGraphic" in2="BackgroundImageFix" result="shape"/><feGaussianBlur result="effect1_foregroundBlur_15_26" stdDeviation="90"/></filter><filter id="b" width="564.935" height="583.645" x="82.179" y="82.587" color-interpolation-filters="sRGB" filterUnits="userSpaceOnUse"><feFlood flood-opacity="0" result="BackgroundImageFix"/><feBlend in="SourceGraphic" in2="BackgroundImageFix" result="shape"/><feGaussianBlur result="effect1_foregroundBlur_15_26" stdDeviation="100"/></filter></defs></svg>