<svg width="1418" height="707" fill="none" xmlns="http://www.w3.org/2000/svg" id="svg1912374794_25511"><g filter="url(#svg1912374794_25511_a)"><path fill-rule="evenodd" clip-rule="evenodd" d="M342.135 202.744c41.507 4.076 85.425-4.78 118.966 16.934 38.057 24.637 72.079 62.622 67.481 103.766-4.438 39.709-60.009 54.202-88.615 85.333-36.095 39.281-40.702 110.425-97.832 117.57-56.845 7.11-102.244-45.436-130.586-89-22.334-34.33 1.578-74.517-1.419-113.903-3.446-45.279-53.058-97.262-17.148-130.097 35.768-32.705 97.659 4.34 149.153 9.397Z" fill="#FFC95E"></path></g><g filter="url(#svg1912374794_25511_b)"><path fill-rule="evenodd" clip-rule="evenodd" d="M375.457 301.691c23.203.786 50.408-29.641 66.424-10.086 16.112 19.673-10.001 50.177-11.367 77.309-1.199 23.839 15.378 48.869 4.017 68.754-12.215 21.378-37.077 25.687-59.074 27.605-24.218 2.111-50.482 2.298-68.642-16.47-18.894-19.525-24.279-50.484-24.599-79.889-.325-29.849 1.033-66.222 22.837-81.941 21.071-15.192 45.627 13.879 70.404 14.718Z" fill="red"></path></g><path d="M419.321 271.23c-14.914-.044-27.114 11.796-27.157 26.39-.02 6.691 2.346 11.321 6.453 17.153 2.9 4.13 3.246 6.864 2.696 7.926-.535 1.017-2.576 1.587-5.207 1.402-9.354-.662-38.315-4.116-38.418-4.131-.65-.105-1.315-.122-1.892-.124-3.311-.009-9.065 1.569-10.323 12.26-.33 1.564-1.833 10.024-4.137 39.338-.24 1.196-.066 2.275.109 3.191.8 4.153 3.542 6.628 7.312 6.639 3.902.012 8.344-2.604 14.328-6.811 4.991-3.501 9.134-5.055 13.377-5.042 10.745.031 19.485 8.536 19.454 18.964-.03 10.429-8.82 18.882-19.566 18.85-5.011-.015-8.451-1.414-13.582-5.476-5.958-4.715-10.46-6.885-14.052-6.895-3.177-.01-5.636 1.726-6.872 4.706-.714 1.741-.855 4.326-.608 5.789 1.905 20.582 2.869 24.366 3.702 27.662l.351 1.42c1.444 6.385 5.955 10.534 11.439 10.55l121.202.358c8.78.026 14.443-5.526 14.468-14.138l.289-97.844c.019-6.484-3.427-10.822-10.367-12.911-.473-.149-1.035-.165-1.537-.122-.281.028-28.698 2.766-38.797 3.903-.385.043-.813.116-1.183.115-.961-.003-2.675-.156-3.307-1.31-.691-1.243-.49-4.093 2.153-8.266l.475-.707c4.054-6.399 6.059-9.628 6.079-16.29.043-14.594-11.969-26.505-26.882-26.549Z" fill="#187CF2"></path><path d="M180.169 458.766h348.333c1.917 69.345-4.502 135.833-175 135.833s-174.983-59.705-173.333-135.833Z" fill="#000" stroke="#000"></path><path d="M378.948 368.806c0-14.914-11.876-27.079-26.47-27.079-6.692 0-11.315 2.38-17.135 6.504-4.121 2.912-6.854 3.266-7.917 2.72-1.02-.533-1.596-2.572-1.418-5.203.635-9.357 4.003-38.327 4.017-38.431.104-.65.118-1.315.118-1.892 0-3.311-1.595-9.06-12.289-10.287-1.566-.325-10.03-1.803-39.351-4.021-1.196-.236-2.274-.059-3.19.119-4.151.813-6.618 3.562-6.618 7.331 0 3.902 2.63 8.336 6.854 14.308 3.516 4.981 5.081 9.12 5.081 13.362 0 10.746-8.478 19.511-18.907 19.511-10.428 0-18.907-8.765-18.907-19.511 0-5.011 1.389-8.455 5.436-13.599 4.697-5.971 6.854-10.479 6.854-14.071 0-3.178-1.743-5.631-4.727-6.858-1.743-.71-4.328-.843-5.79-.592-20.577 1.966-24.358 2.942-27.652 3.784l-1.418.355c-6.381 1.463-10.517 5.986-10.517 11.47v121.203c0 8.78 5.569 14.427 14.18 14.427h97.845c6.484 0 10.812-3.459 12.88-10.406.148-.473.163-1.035.118-1.537-.029-.281-2.851-28.69-4.017-38.785-.045-.385-.119-.813-.119-1.183 0-.961.148-2.675 1.3-3.311 1.241-.694 4.092-.502 8.272 2.129l.709.473c6.411 4.035 9.646 6.03 16.308 6.03 14.594 0 26.47-12.046 26.47-26.96Z" fill="#60704B"></path><path d="M263.564 331.975c8.428 12.305 25.1 15.63 37.14 7.383 5.521-3.781 7.991-8.357 10.462-15.048 1.754-4.731 3.808-6.568 4.995-6.718 1.142-.137 2.769 1.221 4.11 3.491 4.763 8.079 18.355 33.883 18.402 33.977.282.595.646 1.152.971 1.628 1.871 2.731 6.437 6.574 15.953 1.542 1.476-.616 9.294-4.179 34.737-18.919 1.121-.481 1.91-1.237 2.566-1.901 2.965-3.016 3.446-6.678 1.317-9.788-2.206-3.219-6.88-5.392-13.74-7.931-5.716-2.123-9.346-4.653-11.743-8.153-6.072-8.865-4.03-20.888 4.573-26.781 8.604-5.893 20.552-3.453 26.625 5.413 2.831 4.134 3.632 7.76 3.199 14.291-.501 7.581.268 12.519 2.297 15.482 1.796 2.622 4.621 3.661 7.776 2.987 1.839-.399 4.046-1.75 5.111-2.784 15.865-13.249 18.434-16.191 20.675-18.747l.97-1.094c4.437-4.814 5.294-10.882 2.195-15.407l-68.491-99.996c-4.961-7.244-12.746-8.755-19.851-3.889l-80.725 55.291c-5.35 3.664-6.966 8.963-4.746 15.864.145.473.45.945.771 1.335.183.215 18.564 22.059 25.232 29.728.253.292.557.604.765.909.543.793 1.39 2.291.799 3.466-.631 1.274-3.092 2.727-8.027 2.918l-.853.011c-7.569.293-11.365.475-16.862 4.239-12.04 8.247-15.031 24.897-6.603 37.201Z" fill="#FD5D47"></path><g filter="url(#svg1912374794_25511_c)"><path d="M678.24 224.728h-45.568v21.504h35.968v14.208h-35.968V295h-17.664v-84.48h63.232v14.208Zm30.631-21.76v72.32c0 2.987.512 5.077 1.536 6.272 1.024 1.195 2.731 1.792 5.12 1.792 1.451 0 2.645-.085 3.584-.256.939-.256 2.133-.597 3.584-1.024l-1.536 11.52c-1.451.853-3.285 1.493-5.504 1.92a27.339 27.339 0 0 1-6.4.768c-6.229 0-10.795-1.493-13.696-4.48-2.816-3.072-4.224-7.936-4.224-14.592v-74.24h17.536Zm53.291 93.312c-6.741 0-12.629-1.323-17.664-3.968-4.949-2.645-8.789-6.443-11.52-11.392s-4.096-10.923-4.096-17.92c0-6.997 1.365-12.971 4.096-17.92 2.731-4.949 6.528-8.747 11.392-11.392 4.949-2.645 10.581-3.968 16.896-3.968 6.485 0 11.989 1.323 16.512 3.968 4.523 2.56 7.979 6.101 10.368 10.624 2.389 4.437 3.584 9.515 3.584 15.232 0 1.707-.043 3.328-.128 4.864a47.879 47.879 0 0 1-.384 4.096h-51.072v-12.16h43.392l-8.448 3.072c0-5.376-1.237-9.515-3.712-12.416-2.389-2.901-5.803-4.352-10.24-4.352-3.243 0-6.059.768-8.448 2.304-2.304 1.536-4.053 3.84-5.248 6.912-1.195 2.987-1.792 6.784-1.792 11.392 0 4.523.64 8.277 1.92 11.264 1.365 2.901 3.243 5.077 5.632 6.528 2.475 1.451 5.419 2.176 8.832 2.176 3.755 0 6.784-.725 9.088-2.176 2.304-1.451 4.096-3.456 5.376-6.016l13.952 5.376c-1.365 3.328-3.456 6.187-6.272 8.576-2.731 2.389-6.016 4.224-9.856 5.504-3.755 1.195-7.808 1.792-12.16 1.792Zm44.429-1.28v-64h15.744l.64 11.52c2.133-4.267 5.035-7.467 8.704-9.6 3.755-2.133 7.893-3.2 12.416-3.2 4.608 0 8.747 1.067 12.416 3.2 3.755 2.133 6.571 5.291 8.448 9.472 1.365-2.816 3.2-5.163 5.504-7.04a24.164 24.164 0 0 1 7.68-4.224 26.949 26.949 0 0 1 8.576-1.408c4.181 0 7.979.853 11.392 2.56 3.499 1.707 6.272 4.267 8.32 7.68 2.048 3.413 3.072 7.765 3.072 13.056V295h-17.536v-38.528c0-4.693-1.024-8.021-3.072-9.984-2.048-1.963-4.693-2.944-7.936-2.944-2.56 0-4.949.64-7.168 1.92-2.133 1.28-3.84 3.2-5.12 5.76-1.195 2.475-1.792 5.589-1.792 9.344V295h-17.536v-38.528c0-4.693-1.067-8.021-3.2-9.984-2.048-1.963-4.693-2.944-7.936-2.944-2.219 0-4.437.597-6.656 1.792-2.133 1.195-3.925 3.072-5.376 5.632-1.365 2.56-2.048 5.931-2.048 10.112V295h-17.536Zm129.832-73.216c-3.669 0-6.4-.768-8.192-2.304-1.792-1.621-2.688-3.968-2.688-7.04 0-3.157.896-5.504 2.688-7.04 1.792-1.621 4.523-2.432 8.192-2.432 3.669 0 6.4.811 8.192 2.432 1.792 1.536 2.688 3.883 2.688 7.04 0 3.072-.896 5.419-2.688 7.04-1.792 1.536-4.523 2.304-8.192 2.304Zm8.704 9.216v64h-17.536v-64h17.536Zm18.589 64v-64h15.744l1.024 19.2-2.176-2.048c1.024-4.181 2.645-7.637 4.864-10.368 2.219-2.731 4.907-4.736 8.064-6.016 3.243-1.365 6.784-2.048 10.624-2.048 4.44 0 8.36.853 11.78 2.56 3.49 1.707 6.23 4.309 8.19 7.808 2.05 3.413 3.07 7.723 3.07 12.928V295h-17.54v-36.992c0-5.461-1.06-9.216-3.2-11.264-2.13-2.133-4.903-3.2-8.316-3.2-2.389 0-4.736.597-7.04 1.792-2.219 1.109-4.053 2.944-5.504 5.504-1.365 2.56-2.048 5.973-2.048 10.24V295h-17.536Zm138.254-79.232 2.05 12.544h-1.15a4.79 4.79 0 0 0-1.15-.128c-3.93 0-6.87.896-8.83 2.688-1.97 1.707-2.95 4.096-2.95 7.168l-7.17-2.944c0-3.413.69-6.571 2.05-9.472 1.37-2.987 3.37-5.376 6.02-7.168 2.73-1.792 5.97-2.688 9.73-2.688h1.4Zm-20.99 67.2c6.91 0 12.25 1.493 16 4.48 3.76 2.987 5.63 7.168 5.63 12.544 0 4.864-1.4 8.96-4.22 12.288-2.82 3.413-6.78 5.973-11.9 7.68-5.04 1.707-10.88 2.56-17.54 2.56-11.01 0-19.07-1.536-24.19-4.608-5.04-3.072-7.55-7.083-7.55-12.032 0-3.499 1.32-6.443 3.96-8.832 2.73-2.389 7.21-3.712 13.44-3.968l-.64 2.048c-4.43-.768-7.85-2.219-10.24-4.352-2.3-2.219-3.45-5.248-3.45-9.088 0-3.925 1.49-7.125 4.48-9.6 3.07-2.56 7.21-4.053 12.41-4.48l7.68 3.584h-1.79c-3.67.256-6.27 1.024-7.81 2.304-1.45 1.195-2.17 2.56-2.17 4.096 0 1.792.68 3.157 2.05 4.096 1.45.853 3.49 1.28 6.14 1.28h19.71Zm-11.9 27.52c4.44 0 8.06-.384 10.88-1.152 2.9-.768 5.03-1.749 6.4-2.944 1.45-1.195 2.17-2.517 2.17-3.968 0-1.621-.64-2.944-1.92-3.968-1.28-.939-3.58-1.408-6.91-1.408h-21.63c-2.05 0-3.75.512-5.12 1.536-1.28 1.024-1.92 2.432-1.92 4.224 0 2.389 1.58 4.267 4.74 5.632 3.24 1.365 7.68 2.048 13.31 2.048Zm.13-80.768c5.97 0 11.13.896 15.48 2.688 4.44 1.707 7.81 4.181 10.12 7.424 2.39 3.243 3.58 7.125 3.58 11.648 0 4.437-1.19 8.277-3.58 11.52-2.31 3.243-5.68 5.76-10.12 7.552-4.35 1.707-9.51 2.56-15.48 2.56-9.48 0-16.73-1.92-21.76-5.76-4.95-3.925-7.43-9.216-7.43-15.872 0-4.523 1.15-8.405 3.46-11.648 2.39-3.243 5.76-5.717 10.11-7.424 4.35-1.792 9.56-2.688 15.62-2.688Zm0 11.008c-3.42 0-6.23.939-8.45 2.816-2.22 1.877-3.33 4.48-3.33 7.808 0 3.328 1.11 5.973 3.33 7.936 2.22 1.877 5.03 2.816 8.45 2.816 3.41 0 6.18-.939 8.32-2.816 2.21-1.963 3.32-4.608 3.32-7.936 0-3.328-1.11-5.931-3.32-7.808-2.14-1.877-4.91-2.816-8.32-2.816Zm68.2 55.552c-5.29 0-10.03-1.323-14.21-3.968-4.1-2.645-7.34-6.443-9.73-11.392-2.3-4.949-3.45-10.88-3.45-17.792 0-7.083 1.23-13.099 3.71-18.048 2.47-5.035 5.8-8.832 9.98-11.392 4.27-2.645 9.05-3.968 14.34-3.968 5.63 0 10.28 1.621 13.95 4.864s6.06 7.424 7.17 12.544l-1.67 2.048v-46.208h17.54V295h-15.74l-1.16-19.456 2.18 1.024c-.6 4.011-1.96 7.509-4.1 10.496-2.13 2.901-4.82 5.163-8.06 6.784-3.24 1.621-6.83 2.432-10.75 2.432Zm5.12-13.44c3.07 0 5.72-.768 7.93-2.304 2.22-1.621 3.93-3.968 5.12-7.04 1.28-3.072 1.92-6.741 1.92-11.008 0-4.096-.59-7.552-1.79-10.368-1.19-2.901-2.9-5.12-5.12-6.656-2.22-1.536-4.82-2.304-7.81-2.304-4.77 0-8.53 1.707-11.26 5.12-2.65 3.328-3.97 8.235-3.97 14.72 0 6.485 1.32 11.435 3.97 14.848 2.65 3.328 6.31 4.992 11.01 4.992Zm80.12-53.12c6.49 0 12.16 1.323 17.02 3.968 4.95 2.645 8.79 6.443 11.52 11.392 2.82 4.949 4.23 10.923 4.23 17.92 0 6.912-1.41 12.885-4.23 17.92-2.73 4.949-6.57 8.747-11.52 11.392-4.86 2.645-10.53 3.968-17.02 3.968-6.4 0-12.07-1.323-17.02-3.968-4.95-2.645-8.84-6.443-11.65-11.392-2.73-5.035-4.1-11.008-4.1-17.92 0-6.997 1.37-12.971 4.1-17.92 2.81-4.949 6.7-8.747 11.65-11.392 4.95-2.645 10.62-3.968 17.02-3.968Zm0 13.056c-3.24 0-6.02.768-8.32 2.304-2.22 1.451-3.93 3.669-5.12 6.656-1.19 2.987-1.79 6.741-1.79 11.264s.6 8.277 1.79 11.264 2.9 5.248 5.12 6.784c2.3 1.451 5.08 2.176 8.32 2.176 3.16 0 5.85-.725 8.06-2.176 2.31-1.536 4.06-3.797 5.25-6.784 1.2-2.987 1.79-6.741 1.79-11.264s-.59-8.277-1.79-11.264c-1.19-2.987-2.94-5.205-5.25-6.656-2.21-1.536-4.9-2.304-8.06-2.304ZM1270.09 295v-64h15.75l1.02 19.2-2.18-2.048c1.03-4.181 2.65-7.637 4.87-10.368 2.22-2.731 4.9-4.736 8.06-6.016 3.24-1.365 6.79-2.048 10.63-2.048 4.43 0 8.36.853 11.77 2.56 3.5 1.707 6.23 4.309 8.19 7.808 2.05 3.413 3.08 7.723 3.08 12.928V295h-17.54v-36.992c0-5.461-1.07-9.216-3.2-11.264-2.13-2.133-4.91-3.2-8.32-3.2-2.39 0-4.74.597-7.04 1.792-2.22 1.109-4.05 2.944-5.5 5.504-1.37 2.56-2.05 5.973-2.05 10.24V295h-17.54ZM637.024 446.28c-5.803 0-10.88-.896-15.232-2.688-4.267-1.877-7.595-4.523-9.984-7.936-2.304-3.499-3.456-7.68-3.456-12.544 0-2.475.341-4.949 1.024-7.424.683-2.475 1.877-4.821 3.584-7.04 1.792-2.304 4.181-4.395 7.168-6.272 3.072-1.877 6.955-3.371 11.648-4.48l4.48-1.792c3.499-2.048 6.272-3.883 8.32-5.504 2.048-1.707 3.499-3.413 4.352-5.12.939-1.792 1.408-3.797 1.408-6.016 0-2.475-.768-4.395-2.304-5.76-1.536-1.451-3.584-2.176-6.144-2.176-2.901 0-5.12.853-6.656 2.56-1.451 1.621-2.176 3.669-2.176 6.144 0 1.451.213 2.859.64 4.224.512 1.365 1.451 3.072 2.816 5.12 1.365 1.963 3.371 4.565 6.016 7.808 2.731 3.243 6.357 7.467 10.88 12.672 4.437 5.12 8.149 9.301 11.136 12.544 3.072 3.243 5.675 5.717 7.808 7.424 2.219 1.621 4.309 2.731 6.272 3.328 2.048.512 4.309.64 6.784.384l-2.048 12.544c-3.157 0-6.016-.299-8.576-.896-2.475-.512-5.077-1.621-7.808-3.328-2.731-1.792-5.931-4.437-9.6-7.936-3.584-3.499-7.979-8.192-13.184-14.08-5.461-5.973-9.941-10.965-13.44-14.976-3.413-4.011-6.059-7.424-7.936-10.24-1.877-2.816-3.2-5.376-3.968-7.68-.768-2.304-1.152-4.736-1.152-7.296 0-3.413.853-6.699 2.56-9.856s4.352-5.717 7.936-7.68c3.584-2.048 8.192-3.072 13.824-3.072 5.035 0 9.173.853 12.416 2.56 3.328 1.707 5.803 3.968 7.424 6.784 1.707 2.816 2.56 5.973 2.56 9.472 0 3.499-.725 6.784-2.176 9.856-1.451 2.987-3.883 5.76-7.296 8.32-3.328 2.475-7.893 4.736-13.696 6.784l-4.096 2.048c-3.499 1.792-6.229 3.499-8.192 5.12s-3.328 3.371-4.096 5.248c-.768 1.792-1.152 3.925-1.152 6.4 0 2.475.683 4.651 2.048 6.528 1.365 1.877 3.2 3.328 5.504 4.352 2.304 1.024 4.949 1.536 7.936 1.536 4.267 0 7.936-.725 11.008-2.176 3.072-1.451 5.973-3.413 8.704-5.888l1.92-2.176c1.792-2.987 3.2-6.357 4.224-10.112 1.109-3.755 1.536-8.064 1.28-12.928l12.416.512c.171 5.461-.597 10.667-2.304 15.616-1.621 4.949-4.139 9.301-7.552 13.056l-3.072 2.944c-2.987 4.011-6.912 7.211-11.776 9.6-4.779 2.389-10.453 3.584-17.024 3.584Zm162.925-85.76v14.208h-28.288V445h-17.664v-70.272h-28.416V360.52h74.368ZM811.091 445v-92.032h17.536v38.912c2.048-4.096 4.864-7.125 8.448-9.088 3.584-2.048 7.637-3.072 12.16-3.072 4.437 0 8.363.853 11.776 2.56 3.499 1.707 6.229 4.309 8.192 7.808 2.048 3.413 3.072 7.723 3.072 12.928V445h-17.536v-36.864c0-5.547-1.067-9.344-3.2-11.392-2.133-2.133-4.864-3.2-8.192-3.2-2.475 0-4.864.597-7.168 1.792-2.219 1.109-4.053 2.987-5.504 5.632-1.365 2.56-2.048 5.973-2.048 10.24V445h-17.536Zm108.434-65.28c6.485 0 12.16 1.323 17.024 3.968 4.949 2.645 8.789 6.443 11.52 11.392 2.816 4.949 4.224 10.923 4.224 17.92 0 6.912-1.408 12.885-4.224 17.92-2.731 4.949-6.571 8.747-11.52 11.392-4.864 2.645-10.539 3.968-17.024 3.968-6.4 0-12.075-1.323-17.024-3.968-4.949-2.645-8.832-6.443-11.648-11.392-2.731-5.035-4.096-11.008-4.096-17.92 0-6.997 1.365-12.971 4.096-17.92 2.816-4.949 6.699-8.747 11.648-11.392 4.949-2.645 10.624-3.968 17.024-3.968Zm0 13.056c-3.243 0-6.016.768-8.32 2.304-2.219 1.451-3.925 3.669-5.12 6.656-1.195 2.987-1.792 6.741-1.792 11.264s.597 8.277 1.792 11.264 2.901 5.248 5.12 6.784c2.304 1.451 5.077 2.176 8.32 2.176 3.157 0 5.845-.725 8.064-2.176 2.304-1.536 4.053-3.797 5.248-6.784 1.195-2.987 1.792-6.741 1.792-11.264s-.597-8.277-1.792-11.264-2.944-5.205-5.248-6.656c-2.219-1.536-4.907-2.304-8.064-2.304ZM966.966 445v-64h15.232l1.152 12.544c1.707-4.437 4.181-7.851 7.424-10.24 3.328-2.389 7.467-3.584 12.416-3.584 1.45 0 2.77.128 3.97.384 1.19.256 2.17.597 2.94 1.024l-2.05 14.72c-.85-.341-1.92-.597-3.2-.768-1.19-.171-2.77-.256-4.73-.256-2.562 0-5.037.64-7.426 1.92-2.389 1.195-4.352 3.072-5.888 5.632-1.536 2.475-2.304 5.632-2.304 9.472V445h-17.536Zm54.004 0v-64h15.74l1.02 19.2-2.17-2.048c1.02-4.181 2.64-7.637 4.86-10.368 2.22-2.731 4.91-4.736 8.07-6.016 3.24-1.365 6.78-2.048 10.62-2.048 4.44 0 8.36.853 11.78 2.56 3.49 1.707 6.23 4.309 8.19 7.808 2.05 3.413 3.07 7.723 3.07 12.928V445h-17.54v-36.992c0-5.461-1.06-9.216-3.2-11.264-2.13-2.133-4.9-3.2-8.32-3.2-2.39 0-4.73.597-7.04 1.792-2.21 1.109-4.05 2.944-5.5 5.504-1.37 2.56-2.05 5.973-2.05 10.24V445h-17.53Zm108.3-65.28c5.72 0 10.54.853 14.47 2.56 4.01 1.621 7.21 3.883 9.6 6.784 2.47 2.816 4.22 5.973 5.24 9.472l-16.38 5.888c-.85-3.84-2.3-6.741-4.35-8.704-2.05-1.963-4.82-2.944-8.32-2.944-3.24 0-6.02.768-8.32 2.304-2.31 1.451-4.06 3.712-5.25 6.784-1.19 2.987-1.79 6.741-1.79 11.264s.6 8.277 1.79 11.264c1.28 2.987 3.07 5.205 5.38 6.656 2.39 1.451 5.16 2.176 8.32 2.176 2.56 0 4.73-.427 6.52-1.28 1.8-.939 3.25-2.261 4.36-3.968 1.19-1.707 2-3.755 2.43-6.144l15.87 5.12c-.94 3.84-2.69 7.211-5.25 10.112s-5.84 5.163-9.85 6.784c-4.01 1.621-8.67 2.432-13.96 2.432-6.57 0-12.37-1.323-17.4-3.968-5.04-2.645-8.92-6.443-11.65-11.392-2.73-4.949-4.1-10.923-4.1-17.92 0-6.997 1.37-12.971 4.1-17.92 2.73-4.949 6.57-8.747 11.52-11.392 4.95-2.645 10.62-3.968 17.02-3.968Zm60.48-26.752v72.32c0 2.987.51 5.077 1.53 6.272 1.03 1.195 2.73 1.792 5.12 1.792 1.45 0 2.65-.085 3.59-.256.93-.256 2.13-.597 3.58-1.024l-1.54 11.52c-1.45.853-3.28 1.493-5.5 1.92-2.13.512-4.27.768-6.4.768-6.23 0-10.79-1.493-13.7-4.48-2.81-3.072-4.22-7.936-4.22-14.592v-74.24h17.54Zm32.42 18.816c-3.67 0-6.4-.768-8.19-2.304-1.79-1.621-2.69-3.968-2.69-7.04 0-3.157.9-5.504 2.69-7.04 1.79-1.621 4.52-2.432 8.19-2.432s6.4.811 8.2 2.432c1.79 1.536 2.68 3.883 2.68 7.04 0 3.072-.89 5.419-2.68 7.04-1.8 1.536-4.53 2.304-8.2 2.304Zm8.71 9.216v64h-17.54v-64h17.54Zm47.13-29.312c2.99 0 5.67.341 8.06 1.024 2.48.597 4.31 1.365 5.51 2.304l-2.43 11.648c-.94-.597-2.01-1.067-3.2-1.408-1.2-.341-2.61-.512-4.23-.512-3.33 0-5.97.768-7.93 2.304-1.97 1.451-2.95 3.968-2.95 7.552v8.832l.77 3.456V445h-17.54v-71.68c0-3.584.6-6.741 1.8-9.472 1.19-2.731 2.85-4.992 4.99-6.784 2.13-1.792 4.65-3.115 7.55-3.968 2.99-.939 6.19-1.408 9.6-1.408ZM1291.07 381v13.056h-48.13V381h48.13Zm38.01-29.312c2.99 0 5.68.341 8.07 1.024 2.47.597 4.31 1.365 5.5 2.304l-2.43 11.648c-.94-.597-2.01-1.067-3.2-1.408-1.2-.341-2.6-.512-4.23-.512-3.32 0-5.97.768-7.93 2.304-1.96 1.451-2.95 3.968-2.95 7.552v8.832l.77 3.456V445h-17.53v-71.68c0-3.584.59-6.741 1.79-9.472 1.19-2.731 2.86-4.992 4.99-6.784 2.13-1.792 4.65-3.115 7.55-3.968 2.99-.939 6.19-1.408 9.6-1.408ZM1342.14 381v13.056h-48.13V381h48.13Zm39.02 65.28c-6.74 0-12.63-1.323-17.66-3.968-4.95-2.645-8.79-6.443-11.52-11.392-2.73-4.949-4.1-10.923-4.1-17.92 0-6.997 1.37-12.971 4.1-17.92 2.73-4.949 6.53-8.747 11.39-11.392 4.95-2.645 10.58-3.968 16.9-3.968 6.48 0 11.99 1.323 16.51 3.968 4.52 2.56 7.98 6.101 10.37 10.624 2.39 4.437 3.58 9.515 3.58 15.232 0 1.707-.04 3.328-.13 4.864a46.425 46.425 0 0 1-.38 4.096h-51.07v-12.16h43.39l-8.45 3.072c0-5.376-1.24-9.515-3.71-12.416-2.39-2.901-5.8-4.352-10.24-4.352-3.24 0-6.06.768-8.45 2.304-2.3 1.536-4.05 3.84-5.25 6.912-1.19 2.987-1.79 6.784-1.79 11.392 0 4.523.64 8.277 1.92 11.264 1.37 2.901 3.24 5.077 5.63 6.528 2.48 1.451 5.42 2.176 8.83 2.176 3.76 0 6.79-.725 9.09-2.176 2.31-1.451 4.1-3.456 5.38-6.016l13.95 5.376c-1.37 3.328-3.46 6.187-6.27 8.576-2.73 2.389-6.02 4.224-9.86 5.504-3.75 1.195-7.81 1.792-12.16 1.792Zm-702.92 78.448h-45.568v21.504h35.968v14.208h-35.968V595h-17.664v-84.48h63.232v14.208Zm36.035 4.992c6.485 0 12.16 1.323 17.024 3.968 4.949 2.645 8.789 6.443 11.52 11.392 2.816 4.949 4.224 10.923 4.224 17.92 0 6.912-1.408 12.885-4.224 17.92-2.731 4.949-6.571 8.747-11.52 11.392-4.864 2.645-10.539 3.968-17.024 3.968-6.4 0-12.075-1.323-17.024-3.968-4.949-2.645-8.832-6.443-11.648-11.392-2.731-5.035-4.096-11.008-4.096-17.92 0-6.997 1.365-12.971 4.096-17.92 2.816-4.949 6.699-8.747 11.648-11.392 4.949-2.645 10.624-3.968 17.024-3.968Zm0 13.056c-3.243 0-6.016.768-8.32 2.304-2.219 1.451-3.925 3.669-5.12 6.656-1.195 2.987-1.792 6.741-1.792 11.264s.597 8.277 1.792 11.264 2.901 5.248 5.12 6.784c2.304 1.451 5.077 2.176 8.32 2.176 3.157 0 5.845-.725 8.064-2.176 2.304-1.536 4.053-3.797 5.248-6.784 1.195-2.987 1.792-6.741 1.792-11.264s-.597-8.277-1.792-11.264-2.944-5.205-5.248-6.656c-2.219-1.536-4.907-2.304-8.064-2.304ZM790.9 529.72c6.485 0 12.16 1.323 17.024 3.968 4.949 2.645 8.789 6.443 11.52 11.392 2.816 4.949 4.224 10.923 4.224 17.92 0 6.912-1.408 12.885-4.224 17.92-2.731 4.949-6.571 8.747-11.52 11.392-4.864 2.645-10.539 3.968-17.024 3.968-6.4 0-12.075-1.323-17.024-3.968-4.949-2.645-8.832-6.443-11.648-11.392-2.731-5.035-4.096-11.008-4.096-17.92 0-6.997 1.365-12.971 4.096-17.92 2.816-4.949 6.699-8.747 11.648-11.392 4.949-2.645 10.624-3.968 17.024-3.968Zm0 13.056c-3.243 0-6.016.768-8.32 2.304-2.219 1.451-3.925 3.669-5.12 6.656-1.195 2.987-1.792 6.741-1.792 11.264s.597 8.277 1.792 11.264 2.901 5.248 5.12 6.784c2.304 1.451 5.077 2.176 8.32 2.176 3.157 0 5.845-.725 8.064-2.176 2.304-1.536 4.053-3.797 5.248-6.784 1.195-2.987 1.792-6.741 1.792-11.264s-.597-8.277-1.792-11.264-2.944-5.205-5.248-6.656c-2.219-1.536-4.907-2.304-8.064-2.304Zm71.633 53.504c-5.291 0-10.027-1.323-14.208-3.968-4.096-2.645-7.339-6.443-9.728-11.392-2.304-4.949-3.456-10.88-3.456-17.792 0-7.083 1.237-13.099 3.712-18.048 2.475-5.035 5.803-8.832 9.984-11.392 4.267-2.645 9.045-3.968 14.336-3.968 5.632 0 10.283 1.621 13.952 4.864 3.669 3.243 6.059 7.424 7.168 12.544l-1.664 2.048v-46.208h17.536V595h-15.744l-1.152-19.456 2.176 1.024c-.597 4.011-1.963 7.509-4.096 10.496a22.169 22.169 0 0 1-8.064 6.784c-3.243 1.621-6.827 2.432-10.752 2.432Zm5.12-13.44c3.072 0 5.717-.768 7.936-2.304 2.219-1.621 3.925-3.968 5.12-7.04 1.28-3.072 1.92-6.741 1.92-11.008 0-4.096-.597-7.552-1.792-10.368-1.195-2.901-2.901-5.12-5.12-6.656-2.219-1.536-4.821-2.304-7.808-2.304-4.779 0-8.533 1.707-11.264 5.12-2.645 3.328-3.968 8.235-3.968 14.72 0 6.485 1.323 11.435 3.968 14.848 2.645 3.328 6.315 4.992 11.008 4.992Zm145.287-72.32v53.376c0 10.155-2.85 18.091-8.57 23.808-5.719 5.717-13.826 8.576-24.322 8.576-7.509 0-13.611-1.365-18.304-4.096-4.693-2.731-7.936-6.571-9.728-11.52-1.792-4.949-2.133-10.624-1.024-17.024l17.152-3.072c-1.024 7.509-.555 12.928 1.408 16.256 1.963 3.328 5.589 4.992 10.88 4.992 5.547 0 9.387-1.707 11.52-5.12 2.219-3.413 3.328-8.491 3.328-15.232V510.52h17.66Zm40.55 85.76c-4.27 0-8.11-.768-11.52-2.304-3.42-1.536-6.15-3.968-8.19-7.296-1.97-3.413-2.95-7.808-2.95-13.184V531h17.54v38.272c0 4.949 1.02 8.405 3.07 10.368 2.05 1.877 4.99 2.816 8.83 2.816 1.79 0 3.54-.299 5.25-.896a12.36 12.36 0 0 0 4.48-3.072c1.37-1.365 2.43-3.115 3.2-5.248.77-2.219 1.15-4.821 1.15-7.808V531h17.54v64h-15.62l-.64-11.136c-2.13 4.267-5.08 7.424-8.83 9.472-3.67 1.963-8.11 2.944-13.31 2.944Zm82.45 0c-6.48 0-12.41-1.152-17.79-3.456-5.29-2.304-9.6-5.547-12.93-9.728l10.11-10.24c2.05 3.072 4.78 5.589 8.2 7.552 3.41 1.963 7.46 2.944 12.16 2.944 3.32 0 5.97-.469 7.93-1.408 2.05-1.024 3.07-2.603 3.07-4.736 0-1.365-.47-2.517-1.4-3.456-.94-1.024-2.82-1.835-5.64-2.432l-11.26-2.304c-7.42-1.536-12.72-3.84-15.87-6.912-3.07-3.157-4.61-7.211-4.61-12.16 0-3.499 1.02-6.784 3.07-9.856 2.13-3.072 5.29-5.547 9.47-7.424 4.18-1.963 9.39-2.944 15.62-2.944 6.4 0 11.95 1.024 16.64 3.072 4.78 1.963 8.53 4.907 11.26 8.832l-10.49 10.24c-1.88-2.987-4.35-5.248-7.43-6.784-2.98-1.621-6.14-2.432-9.47-2.432-2.39 0-4.44.256-6.14.768-1.71.512-2.99 1.237-3.84 2.176-.86.853-1.28 1.963-1.28 3.328 0 1.365.59 2.56 1.79 3.584 1.19.939 3.37 1.749 6.53 2.432l13.05 2.688c6.32 1.28 10.84 3.456 13.57 6.528 2.73 2.987 4.1 6.613 4.1 10.88 0 4.096-1.11 7.765-3.33 11.008-2.13 3.157-5.33 5.675-9.6 7.552-4.18 1.792-9.34 2.688-15.49 2.688Zm65.06-84.864v62.72c0 3.072.77 5.333 2.3 6.784 1.62 1.365 3.8 2.048 6.53 2.048 2.13 0 4.01-.299 5.63-.896a16.207 16.207 0 0 0 4.35-2.688l2.82 11.648c-2.05 1.621-4.61 2.901-7.68 3.84-3.07.939-6.32 1.408-9.73 1.408-4.27 0-8.06-.64-11.39-1.92-3.24-1.28-5.8-3.328-7.68-6.144-1.79-2.816-2.69-6.571-2.69-11.264V516.28l17.54-4.864ZM1221.48 531v13.056h-49.79V531h49.79Zm20.69-9.216c-3.67 0-6.4-.768-8.19-2.304-1.79-1.621-2.69-3.968-2.69-7.04 0-3.157.9-5.504 2.69-7.04 1.79-1.621 4.52-2.432 8.19-2.432s6.4.811 8.2 2.432c1.79 1.536 2.68 3.883 2.68 7.04 0 3.072-.89 5.419-2.68 7.04-1.8 1.536-4.53 2.304-8.2 2.304Zm8.71 9.216v64h-17.54v-64h17.54Zm47.64-1.28c5.72 0 10.54.853 14.47 2.56 4.01 1.621 7.21 3.883 9.6 6.784 2.47 2.816 4.22 5.973 5.24 9.472l-16.38 5.888c-.85-3.84-2.3-6.741-4.35-8.704-2.05-1.963-4.82-2.944-8.32-2.944-3.24 0-6.02.768-8.32 2.304-2.31 1.451-4.06 3.712-5.25 6.784-1.19 2.987-1.79 6.741-1.79 11.264s.6 8.277 1.79 11.264c1.28 2.987 3.07 5.205 5.38 6.656 2.39 1.451 5.16 2.176 8.32 2.176 2.56 0 4.73-.427 6.52-1.28 1.8-.939 3.25-2.261 4.36-3.968 1.19-1.707 2-3.755 2.43-6.144l15.87 5.12c-.94 3.84-2.69 7.211-5.25 10.112s-5.84 5.163-9.85 6.784c-4.01 1.621-8.67 2.432-13.96 2.432-6.57 0-12.37-1.323-17.4-3.968-5.04-2.645-8.92-6.443-11.65-11.392-2.73-4.949-4.1-10.923-4.1-17.92 0-6.997 1.37-12.971 4.1-17.92 2.73-4.949 6.57-8.747 11.52-11.392 4.95-2.645 10.62-3.968 17.02-3.968Zm72.89 66.56c-6.74 0-12.63-1.323-17.66-3.968-4.95-2.645-8.79-6.443-11.52-11.392-2.73-4.949-4.1-10.923-4.1-17.92 0-6.997 1.37-12.971 4.1-17.92 2.73-4.949 6.53-8.747 11.39-11.392 4.95-2.645 10.58-3.968 16.9-3.968 6.48 0 11.99 1.323 16.51 3.968 4.52 2.56 7.98 6.101 10.37 10.624 2.39 4.437 3.58 9.515 3.58 15.232 0 1.707-.04 3.328-.13 4.864a46.425 46.425 0 0 1-.38 4.096h-51.07v-12.16h43.39l-8.45 3.072c0-5.376-1.24-9.515-3.71-12.416-2.39-2.901-5.8-4.352-10.24-4.352-3.24 0-6.06.768-8.45 2.304-2.3 1.536-4.05 3.84-5.25 6.912-1.19 2.987-1.79 6.784-1.79 11.392 0 4.523.64 8.277 1.92 11.264 1.37 2.901 3.24 5.077 5.63 6.528 2.48 1.451 5.42 2.176 8.83 2.176 3.76 0 6.79-.725 9.09-2.176 2.31-1.451 4.1-3.456 5.38-6.016l13.95 5.376c-1.37 3.328-3.46 6.187-6.27 8.576-2.73 2.389-6.02 4.224-9.86 5.504-3.75 1.195-7.81 1.792-12.16 1.792Z" fill="#000"></path></g><defs><filter id="svg1912374794_25511_a" x="0" y="-.002" width="709" height="707" filterUnits="userSpaceOnUse" color-interpolation-filters="sRGB"><feFlood flood-opacity="0" result="BackgroundImageFix"></feFlood><feBlend in="SourceGraphic" in2="BackgroundImageFix" result="shape"></feBlend><feGaussianBlur stdDeviation="90" result="effect1_foregroundBlur_15_39"></feGaussianBlur></filter><filter id="svg1912374794_25511_b" x="82.179" y="82.585" width="564.935" height="583.645" filterUnits="userSpaceOnUse" color-interpolation-filters="sRGB"><feFlood flood-opacity="0" result="BackgroundImageFix"></feFlood><feBlend in="SourceGraphic" in2="BackgroundImageFix" result="shape"></feBlend><feGaussianBlur stdDeviation="100" result="effect1_foregroundBlur_15_39"></feGaussianBlur></filter><filter id="svg1912374794_25511_c" x="604.352" y="202.968" width="810.378" height="401.312" filterUnits="userSpaceOnUse" color-interpolation-filters="sRGB"><feFlood flood-opacity="0" result="BackgroundImageFix"></feFlood><feColorMatrix in="SourceAlpha" values="0 0 0 0 0 0 0 0 0 0 0 0 0 0 0 0 0 0 127 0" result="hardAlpha"></feColorMatrix><feOffset dy="4"></feOffset><feGaussianBlur stdDeviation="2"></feGaussianBlur><feComposite in2="hardAlpha" operator="out"></feComposite><feColorMatrix values="0 0 0 0 0 0 0 0 0 0 0 0 0 0 0 0 0 0 0.25 0"></feColorMatrix><feBlend in2="BackgroundImageFix" result="effect1_dropShadow_15_39"></feBlend><feBlend in="SourceGraphic" in2="effect1_dropShadow_15_39" result="shape"></feBlend></filter></defs></svg>